<?xml version="1.0" encoding="UTF-8" standalone="no"?>
<!DOCTYPE svg PUBLIC "-//W3C//DTD SVG 1.1//EN"
 "http://www.w3.org/Graphics/SVG/1.1/DTD/svg11.dtd">
<!-- Generated by graphviz version 12.1.0 (20240811.2233)
 -->
<!-- Title: G Pages: 1 -->
<svg width="815pt" height="98pt"
 viewBox="0.00 0.00 814.50 98.00" xmlns="http://www.w3.org/2000/svg" xmlns:xlink="http://www.w3.org/1999/xlink">
<g id="graph0" class="graph" transform="scale(1 1) rotate(0) translate(4 94)">
<title>G</title>
<polygon fill="white" stroke="none" points="-4,4 -4,-94 810.5,-94 810.5,4 -4,4"/>
<!-- data.aws_key_pair.key -->
<g id="node1" class="node">
<title>data.aws_key_pair.key</title>
<polygon fill="none" stroke="black" points="345.5,-90 192.25,-90 192.25,-54 345.5,-54 345.5,-90"/>
<text text-anchor="middle" x="268.88" y="-67.33" font-family="sans-serif" font-size="14.00">data.aws_key_pair.key</text>
</g>
<!-- aws_instance.public_instance -->
<g id="node2" class="node">
<title>aws_instance.public_instance</title>
<polygon fill="none" stroke="black" points="588,-63 392.75,-63 392.75,-27 588,-27 588,-63"/>
<text text-anchor="middle" x="490.38" y="-40.33" font-family="sans-serif" font-size="14.00">aws_instance.public_instance</text>
</g>
<!-- aws_instance.public_instance&#45;&gt;data.aws_key_pair.key -->
<g id="edge1" class="edge">
<title>aws_instance.public_instance&#45;&gt;data.aws_key_pair.key</title>
<path fill="none" stroke="black" d="M392.46,-56.92C380.62,-58.38 368.59,-59.86 356.91,-61.29"/>
<polygon fill="black" stroke="black" points="356.84,-57.78 347.34,-62.47 357.69,-64.72 356.84,-57.78"/>
</g>
<!-- aws_subnet.public_subnet -->
<g id="node4" class="node">
<title>aws_subnet.public_subnet</title>
<polygon fill="none" stroke="black" points="356.75,-36 181,-36 181,0 356.75,0 356.75,-36"/>
<text text-anchor="middle" x="268.88" y="-13.32" font-family="sans-serif" font-size="14.00">aws_subnet.public_subnet</text>
</g>
<!-- aws_instance.public_instance&#45;&gt;aws_subnet.public_subnet -->
<g id="edge2" class="edge">
<title>aws_instance.public_instance&#45;&gt;aws_subnet.public_subnet</title>
<path fill="none" stroke="black" d="M392.46,-33.08C384.42,-32.09 376.29,-31.09 368.24,-30.1"/>
<polygon fill="black" stroke="black" points="368.78,-26.64 358.43,-28.89 367.93,-33.59 368.78,-26.64"/>
</g>
<!-- aws_subnet.private_subnet -->
<g id="node3" class="node">
<title>aws_subnet.private_subnet</title>
<polygon fill="none" stroke="black" points="806.5,-63 624,-63 624,-27 806.5,-27 806.5,-63"/>
<text text-anchor="middle" x="715.25" y="-40.33" font-family="sans-serif" font-size="14.00">aws_subnet.private_subnet</text>
</g>
<!-- aws_subnet.private_subnet&#45;&gt;aws_instance.public_instance -->
<g id="edge3" class="edge">
<title>aws_subnet.private_subnet&#45;&gt;aws_instance.public_instance</title>
<path fill="none" stroke="black" d="M623.6,-45C615.73,-45 607.73,-45 599.74,-45"/>
<polygon fill="black" stroke="black" points="600,-41.5 590,-45 600,-48.5 600,-41.5"/>
</g>
<!-- aws_vpc.vpc_virginia -->
<g id="node5" class="node">
<title>aws_vpc.vpc_virginia</title>
<polygon fill="none" stroke="black" points="145,-36 0,-36 0,0 145,0 145,-36"/>
<text text-anchor="middle" x="72.5" y="-13.32" font-family="sans-serif" font-size="14.00">aws_vpc.vpc_virginia</text>
</g>
<!-- aws_subnet.public_subnet&#45;&gt;aws_vpc.vpc_virginia -->
<g id="edge4" class="edge">
<title>aws_subnet.public_subnet&#45;&gt;aws_vpc.vpc_virginia</title>
<path fill="none" stroke="black" d="M180.64,-18C172.7,-18 164.68,-18 156.78,-18"/>
<polygon fill="black" stroke="black" points="156.84,-14.5 146.84,-18 156.84,-21.5 156.84,-14.5"/>
</g>
</g>
</svg>
